<mxfile host="app.diagrams.net" modified="2024-02-09T04:45:23.201Z" agent="Mozilla/5.0 (Macintosh; Intel Mac OS X 10_15_7) AppleWebKit/605.1.15 (KHTML, like Gecko) Version/16.3 Safari/605.1.15" etag="sHelNicFyt-q-uvJzVNr" version="23.1.1" type="device">
  <diagram id="R2lEEEUBdFMjLlhIrx00" name="Page-1">
    <mxGraphModel dx="954" dy="1664" grid="1" gridSize="10" guides="1" tooltips="1" connect="1" arrows="1" fold="1" page="1" pageScale="1" pageWidth="850" pageHeight="1100" math="0" shadow="0" extFonts="Permanent Marker^https://fonts.googleapis.com/css?family=Permanent+Marker">
      <root>
        <mxCell id="0" />
        <mxCell id="1" parent="0" />
        <mxCell id="CmgHee2uS1ip0cAjkPL6-2" value="User" style="whiteSpace=wrap;html=1;align=center;" vertex="1" parent="1">
          <mxGeometry x="180" y="120" width="100" height="40" as="geometry" />
        </mxCell>
        <mxCell id="CmgHee2uS1ip0cAjkPL6-3" value="Pokemon" style="whiteSpace=wrap;html=1;align=center;" vertex="1" parent="1">
          <mxGeometry x="630" y="220" width="100" height="40" as="geometry" />
        </mxCell>
        <mxCell id="CmgHee2uS1ip0cAjkPL6-14" style="edgeStyle=orthogonalEdgeStyle;rounded=0;orthogonalLoop=1;jettySize=auto;html=1;endArrow=none;endFill=0;" edge="1" parent="1" source="CmgHee2uS1ip0cAjkPL6-4">
          <mxGeometry relative="1" as="geometry">
            <mxPoint x="230" y="120" as="targetPoint" />
          </mxGeometry>
        </mxCell>
        <mxCell id="CmgHee2uS1ip0cAjkPL6-4" value="&lt;u&gt;UserID&lt;/u&gt;" style="ellipse;whiteSpace=wrap;html=1;align=center;" vertex="1" parent="1">
          <mxGeometry x="60" y="60" width="100" height="40" as="geometry" />
        </mxCell>
        <mxCell id="CmgHee2uS1ip0cAjkPL6-15" style="edgeStyle=orthogonalEdgeStyle;rounded=0;orthogonalLoop=1;jettySize=auto;html=1;exitX=1;exitY=0.5;exitDx=0;exitDy=0;entryX=0;entryY=0.5;entryDx=0;entryDy=0;endArrow=none;endFill=0;" edge="1" parent="1" source="CmgHee2uS1ip0cAjkPL6-5" target="CmgHee2uS1ip0cAjkPL6-2">
          <mxGeometry relative="1" as="geometry" />
        </mxCell>
        <mxCell id="CmgHee2uS1ip0cAjkPL6-5" value="UserName" style="ellipse;whiteSpace=wrap;html=1;align=center;" vertex="1" parent="1">
          <mxGeometry x="60" y="120" width="100" height="40" as="geometry" />
        </mxCell>
        <mxCell id="CmgHee2uS1ip0cAjkPL6-16" style="edgeStyle=orthogonalEdgeStyle;rounded=0;orthogonalLoop=1;jettySize=auto;html=1;exitX=1;exitY=0.5;exitDx=0;exitDy=0;entryX=0.5;entryY=1;entryDx=0;entryDy=0;endArrow=none;endFill=0;" edge="1" parent="1" source="CmgHee2uS1ip0cAjkPL6-6" target="CmgHee2uS1ip0cAjkPL6-2">
          <mxGeometry relative="1" as="geometry" />
        </mxCell>
        <mxCell id="CmgHee2uS1ip0cAjkPL6-6" value="Email" style="ellipse;whiteSpace=wrap;html=1;align=center;" vertex="1" parent="1">
          <mxGeometry x="60" y="180" width="100" height="40" as="geometry" />
        </mxCell>
        <mxCell id="CmgHee2uS1ip0cAjkPL6-17" style="edgeStyle=orthogonalEdgeStyle;rounded=0;orthogonalLoop=1;jettySize=auto;html=1;endArrow=none;endFill=0;" edge="1" parent="1" source="CmgHee2uS1ip0cAjkPL6-7">
          <mxGeometry relative="1" as="geometry">
            <mxPoint x="230" y="160" as="targetPoint" />
            <Array as="points">
              <mxPoint x="230" y="240" />
              <mxPoint x="230" y="191" />
              <mxPoint x="231" y="191" />
            </Array>
          </mxGeometry>
        </mxCell>
        <mxCell id="CmgHee2uS1ip0cAjkPL6-7" value="Password" style="ellipse;whiteSpace=wrap;html=1;align=center;" vertex="1" parent="1">
          <mxGeometry x="120" y="220" width="100" height="40" as="geometry" />
        </mxCell>
        <mxCell id="CmgHee2uS1ip0cAjkPL6-12" style="edgeStyle=orthogonalEdgeStyle;rounded=0;orthogonalLoop=1;jettySize=auto;html=1;endArrow=none;endFill=0;" edge="1" parent="1" source="CmgHee2uS1ip0cAjkPL6-8" target="CmgHee2uS1ip0cAjkPL6-2">
          <mxGeometry relative="1" as="geometry">
            <Array as="points">
              <mxPoint x="220" y="80" />
              <mxPoint x="230" y="80" />
            </Array>
          </mxGeometry>
        </mxCell>
        <mxCell id="CmgHee2uS1ip0cAjkPL6-8" value="AccountCreationDate" style="ellipse;whiteSpace=wrap;html=1;align=center;" vertex="1" parent="1">
          <mxGeometry x="170" y="20" width="100" height="40" as="geometry" />
        </mxCell>
        <mxCell id="CmgHee2uS1ip0cAjkPL6-13" style="edgeStyle=orthogonalEdgeStyle;rounded=0;orthogonalLoop=1;jettySize=auto;html=1;entryX=0.75;entryY=0;entryDx=0;entryDy=0;endArrow=none;endFill=0;" edge="1" parent="1" source="CmgHee2uS1ip0cAjkPL6-11" target="CmgHee2uS1ip0cAjkPL6-2">
          <mxGeometry relative="1" as="geometry">
            <Array as="points">
              <mxPoint x="340" y="90" />
              <mxPoint x="255" y="90" />
            </Array>
          </mxGeometry>
        </mxCell>
        <mxCell id="CmgHee2uS1ip0cAjkPL6-11" value="AccountAge" style="ellipse;whiteSpace=wrap;html=1;align=center;dashed=1;" vertex="1" parent="1">
          <mxGeometry x="290" y="30" width="100" height="40" as="geometry" />
        </mxCell>
        <mxCell id="CmgHee2uS1ip0cAjkPL6-18" value="HpStat" style="ellipse;whiteSpace=wrap;html=1;align=center;" vertex="1" parent="1">
          <mxGeometry x="500" y="230" width="100" height="40" as="geometry" />
        </mxCell>
        <mxCell id="CmgHee2uS1ip0cAjkPL6-19" value="Name" style="ellipse;whiteSpace=wrap;html=1;align=center;" vertex="1" parent="1">
          <mxGeometry x="500" y="180" width="100" height="40" as="geometry" />
        </mxCell>
        <mxCell id="CmgHee2uS1ip0cAjkPL6-20" value="&lt;u&gt;ID&lt;/u&gt;" style="ellipse;whiteSpace=wrap;html=1;align=center;" vertex="1" parent="1">
          <mxGeometry x="500" y="130" width="100" height="40" as="geometry" />
        </mxCell>
        <mxCell id="CmgHee2uS1ip0cAjkPL6-22" value="HpStat" style="ellipse;whiteSpace=wrap;html=1;align=center;" vertex="1" parent="1">
          <mxGeometry x="500" y="80" width="100" height="40" as="geometry" />
        </mxCell>
        <mxCell id="CmgHee2uS1ip0cAjkPL6-23" value="Weight" style="ellipse;whiteSpace=wrap;html=1;align=center;" vertex="1" parent="1">
          <mxGeometry x="500" y="30" width="100" height="40" as="geometry" />
        </mxCell>
        <mxCell id="CmgHee2uS1ip0cAjkPL6-24" value="Height" style="ellipse;whiteSpace=wrap;html=1;align=center;" vertex="1" parent="1">
          <mxGeometry x="500" y="-20" width="100" height="40" as="geometry" />
        </mxCell>
        <mxCell id="CmgHee2uS1ip0cAjkPL6-25" value="Ability" style="ellipse;whiteSpace=wrap;html=1;align=center;" vertex="1" parent="1">
          <mxGeometry x="500" y="-70" width="100" height="40" as="geometry" />
        </mxCell>
        <mxCell id="CmgHee2uS1ip0cAjkPL6-27" value="Region" style="ellipse;whiteSpace=wrap;html=1;align=center;" vertex="1" parent="1">
          <mxGeometry x="650" y="-70" width="100" height="40" as="geometry" />
        </mxCell>
        <mxCell id="CmgHee2uS1ip0cAjkPL6-28" value="Region" style="ellipse;whiteSpace=wrap;html=1;align=center;" vertex="1" parent="1">
          <mxGeometry x="650" y="-20" width="100" height="40" as="geometry" />
        </mxCell>
        <mxCell id="CmgHee2uS1ip0cAjkPL6-29" value="Is_Type" style="shape=rhombus;perimeter=rhombusPerimeter;whiteSpace=wrap;html=1;align=center;" vertex="1" parent="1">
          <mxGeometry x="650" y="330" width="120" height="60" as="geometry" />
        </mxCell>
        <mxCell id="CmgHee2uS1ip0cAjkPL6-30" value="Has_Moves" style="shape=rhombus;perimeter=rhombusPerimeter;whiteSpace=wrap;html=1;align=center;" vertex="1" parent="1">
          <mxGeometry x="900" y="330" width="120" height="60" as="geometry" />
        </mxCell>
        <mxCell id="CmgHee2uS1ip0cAjkPL6-31" value="In_Team" style="shape=rhombus;perimeter=rhombusPerimeter;whiteSpace=wrap;html=1;align=center;" vertex="1" parent="1">
          <mxGeometry x="410" y="330" width="120" height="60" as="geometry" />
        </mxCell>
        <mxCell id="CmgHee2uS1ip0cAjkPL6-32" value="Pokeball_Pokemon" style="shape=rhombus;perimeter=rhombusPerimeter;whiteSpace=wrap;html=1;align=center;" vertex="1" parent="1">
          <mxGeometry x="530" y="330" width="120" height="60" as="geometry" />
        </mxCell>
        <mxCell id="CmgHee2uS1ip0cAjkPL6-33" value="Level" style="ellipse;whiteSpace=wrap;html=1;align=center;dashed=1;" vertex="1" parent="1">
          <mxGeometry x="650" y="30" width="100" height="40" as="geometry" />
        </mxCell>
        <mxCell id="CmgHee2uS1ip0cAjkPL6-34" value="Evolves From/To" style="shape=rhombus;perimeter=rhombusPerimeter;whiteSpace=wrap;html=1;align=center;" vertex="1" parent="1">
          <mxGeometry x="790" y="210" width="120" height="60" as="geometry" />
        </mxCell>
        <mxCell id="CmgHee2uS1ip0cAjkPL6-36" value="Holds_Item" style="shape=rhombus;perimeter=rhombusPerimeter;whiteSpace=wrap;html=1;align=center;" vertex="1" parent="1">
          <mxGeometry x="770" y="330" width="120" height="60" as="geometry" />
        </mxCell>
        <mxCell id="CmgHee2uS1ip0cAjkPL6-37" value="Cry" style="ellipse;whiteSpace=wrap;html=1;align=center;" vertex="1" parent="1">
          <mxGeometry x="650" y="80" width="100" height="40" as="geometry" />
        </mxCell>
        <mxCell id="CmgHee2uS1ip0cAjkPL6-38" value="Picture" style="ellipse;whiteSpace=wrap;html=1;align=center;" vertex="1" parent="1">
          <mxGeometry x="780" y="-70" width="100" height="40" as="geometry" />
        </mxCell>
        <mxCell id="CmgHee2uS1ip0cAjkPL6-40" value="Description" style="ellipse;whiteSpace=wrap;html=1;align=center;" vertex="1" parent="1">
          <mxGeometry x="780" y="-20" width="100" height="40" as="geometry" />
        </mxCell>
        <mxCell id="CmgHee2uS1ip0cAjkPL6-41" value="Shiny_Status" style="ellipse;whiteSpace=wrap;html=1;align=center;" vertex="1" parent="1">
          <mxGeometry x="650" y="130" width="100" height="40" as="geometry" />
        </mxCell>
        <mxCell id="CmgHee2uS1ip0cAjkPL6-42" value="Sp_Attack" style="ellipse;whiteSpace=wrap;html=1;align=center;" vertex="1" parent="1">
          <mxGeometry x="790" y="30" width="100" height="40" as="geometry" />
        </mxCell>
        <mxCell id="CmgHee2uS1ip0cAjkPL6-43" value="Sp_Defense" style="ellipse;whiteSpace=wrap;html=1;align=center;" vertex="1" parent="1">
          <mxGeometry x="790" y="80" width="100" height="40" as="geometry" />
        </mxCell>
        <mxCell id="CmgHee2uS1ip0cAjkPL6-44" value="Gender" style="ellipse;whiteSpace=wrap;html=1;align=center;" vertex="1" parent="1">
          <mxGeometry x="790" y="130" width="100" height="40" as="geometry" />
        </mxCell>
        <mxCell id="CmgHee2uS1ip0cAjkPL6-45" value="Team" style="whiteSpace=wrap;html=1;align=center;" vertex="1" parent="1">
          <mxGeometry x="180" y="440" width="100" height="40" as="geometry" />
        </mxCell>
        <mxCell id="CmgHee2uS1ip0cAjkPL6-47" value="Item" style="whiteSpace=wrap;html=1;align=center;" vertex="1" parent="1">
          <mxGeometry x="690" y="500" width="100" height="40" as="geometry" />
        </mxCell>
        <mxCell id="CmgHee2uS1ip0cAjkPL6-48" style="edgeStyle=orthogonalEdgeStyle;rounded=0;orthogonalLoop=1;jettySize=auto;html=1;endArrow=none;endFill=0;" edge="1" parent="1" target="CmgHee2uS1ip0cAjkPL6-49">
          <mxGeometry relative="1" as="geometry">
            <mxPoint x="740" y="610" as="targetPoint" />
            <mxPoint x="740" y="540" as="sourcePoint" />
          </mxGeometry>
        </mxCell>
        <mxCell id="CmgHee2uS1ip0cAjkPL6-49" value="" style="triangle;whiteSpace=wrap;html=1;rotation=90;fillColor=#000000;" vertex="1" parent="1">
          <mxGeometry x="710" y="570" width="60" height="80" as="geometry" />
        </mxCell>
        <mxCell id="CmgHee2uS1ip0cAjkPL6-50" value="" style="edgeStyle=none;orthogonalLoop=1;jettySize=auto;html=1;rounded=0;curved=1;endArrow=none;endFill=0;strokeWidth=3;" edge="1" parent="1">
          <mxGeometry width="80" relative="1" as="geometry">
            <mxPoint x="685" y="610" as="sourcePoint" />
            <mxPoint x="795" y="610" as="targetPoint" />
            <Array as="points">
              <mxPoint x="745" y="700" />
            </Array>
          </mxGeometry>
        </mxCell>
        <mxCell id="CmgHee2uS1ip0cAjkPL6-60" style="rounded=0;orthogonalLoop=1;jettySize=auto;html=1;entryX=0.5;entryY=1;entryDx=0;entryDy=0;endArrow=none;endFill=0;" edge="1" parent="1" source="CmgHee2uS1ip0cAjkPL6-51" target="CmgHee2uS1ip0cAjkPL6-49">
          <mxGeometry relative="1" as="geometry" />
        </mxCell>
        <mxCell id="CmgHee2uS1ip0cAjkPL6-51" value="PokeBall" style="whiteSpace=wrap;html=1;align=center;" vertex="1" parent="1">
          <mxGeometry x="570" y="660" width="100" height="40" as="geometry" />
        </mxCell>
        <mxCell id="CmgHee2uS1ip0cAjkPL6-61" style="rounded=0;orthogonalLoop=1;jettySize=auto;html=1;entryX=0.5;entryY=0;entryDx=0;entryDy=0;endArrow=none;endFill=0;" edge="1" parent="1" source="CmgHee2uS1ip0cAjkPL6-52" target="CmgHee2uS1ip0cAjkPL6-49">
          <mxGeometry relative="1" as="geometry" />
        </mxCell>
        <mxCell id="CmgHee2uS1ip0cAjkPL6-52" value="BattleItem" style="whiteSpace=wrap;html=1;align=center;" vertex="1" parent="1">
          <mxGeometry x="800" y="660" width="100" height="40" as="geometry" />
        </mxCell>
        <mxCell id="CmgHee2uS1ip0cAjkPL6-53" value="Egg" style="whiteSpace=wrap;html=1;align=center;" vertex="1" parent="1">
          <mxGeometry x="330" y="810" width="100" height="40" as="geometry" />
        </mxCell>
        <mxCell id="CmgHee2uS1ip0cAjkPL6-54" value="In_Egg" style="shape=rhombus;perimeter=rhombusPerimeter;whiteSpace=wrap;html=1;align=center;" vertex="1" parent="1">
          <mxGeometry x="280" y="330" width="120" height="60" as="geometry" />
        </mxCell>
        <mxCell id="CmgHee2uS1ip0cAjkPL6-55" value="Type" style="whiteSpace=wrap;html=1;align=center;" vertex="1" parent="1">
          <mxGeometry x="170" y="610" width="100" height="40" as="geometry" />
        </mxCell>
        <mxCell id="CmgHee2uS1ip0cAjkPL6-56" value="Move" style="whiteSpace=wrap;html=1;align=center;" vertex="1" parent="1">
          <mxGeometry x="1070" y="460" width="100" height="40" as="geometry" />
        </mxCell>
        <mxCell id="CmgHee2uS1ip0cAjkPL6-63" style="edgeStyle=orthogonalEdgeStyle;rounded=0;orthogonalLoop=1;jettySize=auto;html=1;endArrow=none;endFill=0;" edge="1" parent="1" source="CmgHee2uS1ip0cAjkPL6-57" target="CmgHee2uS1ip0cAjkPL6-45">
          <mxGeometry relative="1" as="geometry" />
        </mxCell>
        <mxCell id="CmgHee2uS1ip0cAjkPL6-57" value="Team_ID" style="ellipse;whiteSpace=wrap;html=1;align=center;" vertex="1" parent="1">
          <mxGeometry x="50" y="400" width="100" height="40" as="geometry" />
        </mxCell>
        <mxCell id="CmgHee2uS1ip0cAjkPL6-64" style="edgeStyle=orthogonalEdgeStyle;rounded=0;orthogonalLoop=1;jettySize=auto;html=1;" edge="1" parent="1" source="CmgHee2uS1ip0cAjkPL6-58" target="CmgHee2uS1ip0cAjkPL6-55">
          <mxGeometry relative="1" as="geometry" />
        </mxCell>
        <mxCell id="CmgHee2uS1ip0cAjkPL6-58" value="Type_ID" style="ellipse;whiteSpace=wrap;html=1;align=center;" vertex="1" parent="1">
          <mxGeometry x="40" y="570" width="100" height="40" as="geometry" />
        </mxCell>
        <mxCell id="CmgHee2uS1ip0cAjkPL6-65" style="edgeStyle=orthogonalEdgeStyle;rounded=0;orthogonalLoop=1;jettySize=auto;html=1;entryX=0;entryY=0.5;entryDx=0;entryDy=0;" edge="1" parent="1" source="CmgHee2uS1ip0cAjkPL6-59" target="CmgHee2uS1ip0cAjkPL6-53">
          <mxGeometry relative="1" as="geometry" />
        </mxCell>
        <mxCell id="CmgHee2uS1ip0cAjkPL6-59" value="Egg_ID" style="ellipse;whiteSpace=wrap;html=1;align=center;" vertex="1" parent="1">
          <mxGeometry x="190" y="760" width="100" height="40" as="geometry" />
        </mxCell>
        <mxCell id="CmgHee2uS1ip0cAjkPL6-66" value="Steps_Taken" style="ellipse;whiteSpace=wrap;html=1;align=center;dashed=1;" vertex="1" parent="1">
          <mxGeometry x="180" y="870" width="100" height="40" as="geometry" />
        </mxCell>
        <mxCell id="CmgHee2uS1ip0cAjkPL6-67" value="Needed_Steps" style="ellipse;whiteSpace=wrap;html=1;align=center;" vertex="1" parent="1">
          <mxGeometry x="180" y="820" width="100" height="40" as="geometry" />
        </mxCell>
        <mxCell id="CmgHee2uS1ip0cAjkPL6-68" value="Item_ID" style="ellipse;whiteSpace=wrap;html=1;align=center;" vertex="1" parent="1">
          <mxGeometry x="560" y="470" width="100" height="40" as="geometry" />
        </mxCell>
        <mxCell id="CmgHee2uS1ip0cAjkPL6-69" value="Description" style="ellipse;whiteSpace=wrap;html=1;align=center;" vertex="1" parent="1">
          <mxGeometry x="560" y="520" width="100" height="40" as="geometry" />
        </mxCell>
        <mxCell id="CmgHee2uS1ip0cAjkPL6-70" value="Name" style="ellipse;whiteSpace=wrap;html=1;align=center;" vertex="1" parent="1">
          <mxGeometry x="820" y="460" width="100" height="40" as="geometry" />
        </mxCell>
        <mxCell id="CmgHee2uS1ip0cAjkPL6-71" value="Icon" style="ellipse;whiteSpace=wrap;html=1;align=center;" vertex="1" parent="1">
          <mxGeometry x="820" y="510" width="100" height="40" as="geometry" />
        </mxCell>
        <mxCell id="CmgHee2uS1ip0cAjkPL6-72" value="Catch_Rate" style="ellipse;whiteSpace=wrap;html=1;align=center;" vertex="1" parent="1">
          <mxGeometry x="570" y="720" width="100" height="40" as="geometry" />
        </mxCell>
        <mxCell id="CmgHee2uS1ip0cAjkPL6-73" value="Name" style="ellipse;whiteSpace=wrap;html=1;align=center;" vertex="1" parent="1">
          <mxGeometry x="40" y="640" width="100" height="40" as="geometry" />
        </mxCell>
        <mxCell id="CmgHee2uS1ip0cAjkPL6-75" value="Name" style="ellipse;whiteSpace=wrap;html=1;align=center;" vertex="1" parent="1">
          <mxGeometry x="50" y="460" width="100" height="40" as="geometry" />
        </mxCell>
        <mxCell id="CmgHee2uS1ip0cAjkPL6-76" value="Size" style="ellipse;whiteSpace=wrap;html=1;align=center;dashed=1;" vertex="1" parent="1">
          <mxGeometry x="50" y="350" width="100" height="40" as="geometry" />
        </mxCell>
      </root>
    </mxGraphModel>
  </diagram>
</mxfile>
